<mxfile host="65bd71144e">
    <diagram id="ryOiRbwOGwqkbEQXfBvJ" name="PÃ¡gina-1">
        <mxGraphModel dx="297" dy="2952" grid="1" gridSize="10" guides="1" tooltips="1" connect="1" arrows="1" fold="1" page="1" pageScale="1" pageWidth="827" pageHeight="1169" math="0" shadow="0">
            <root>
                <mxCell id="0"/>
                <mxCell id="1" parent="0"/>
                <mxCell id="42" value="Exceptions" style="shape=folder;fontStyle=1;spacingTop=10;tabWidth=40;tabHeight=14;tabPosition=left;html=1;labelBackgroundColor=none;fontSize=35;fontColor=#000000;fillColor=#FFFFFF;gradientColor=none;verticalAlign=top;" vertex="1" parent="1">
                    <mxGeometry x="1780" y="910" width="1170" height="210" as="geometry"/>
                </mxCell>
                <mxCell id="43" value="&lt;font style=&quot;font-size: 35px&quot;&gt;Repository&lt;/font&gt;" style="shape=folder;fontStyle=1;spacingTop=10;tabWidth=40;tabHeight=14;tabPosition=left;html=1;verticalAlign=top;" vertex="1" parent="1">
                    <mxGeometry x="1780" y="-130" width="1800" height="330" as="geometry"/>
                </mxCell>
                <mxCell id="44" value="Views" style="shape=folder;fontStyle=1;spacingTop=10;tabWidth=40;tabHeight=14;tabPosition=left;html=1;labelBackgroundColor=none;fontSize=35;fontColor=#000000;fillColor=#FFFFFF;gradientColor=none;verticalAlign=top;" vertex="1" parent="1">
                    <mxGeometry x="2140" y="1180" width="410" height="210" as="geometry"/>
                </mxCell>
                <mxCell id="45" value="Services" style="shape=folder;fontStyle=1;spacingTop=10;tabWidth=40;tabHeight=14;tabPosition=left;html=1;labelBackgroundColor=none;fontSize=35;fontColor=#000000;fillColor=#FFFFFF;gradientColor=none;verticalAlign=top;" vertex="1" parent="1">
                    <mxGeometry x="1790" y="230" width="1500" height="570" as="geometry"/>
                </mxCell>
                <mxCell id="46" style="edgeStyle=none;html=1;exitX=0.25;exitY=0;exitDx=0;exitDy=0;entryX=0.546;entryY=1.015;entryDx=0;entryDy=0;entryPerimeter=0;dashed=1;endArrow=block;endFill=0;endSize=12;" edge="1" parent="1" source="47" target="49">
                    <mxGeometry relative="1" as="geometry"/>
                </mxCell>
                <mxCell id="47" value="FilmeFileRepository" style="swimlane;fontStyle=1;align=center;verticalAlign=top;childLayout=stackLayout;horizontal=1;startSize=26;horizontalStack=0;resizeParent=1;resizeParentMax=0;resizeLast=0;collapsible=1;marginBottom=0;fillColor=#1BA1E2;fontColor=#ffffff;strokeColor=#001DBC;" vertex="1" parent="1">
                    <mxGeometry x="1988" y="129" width="160" height="34" as="geometry"/>
                </mxCell>
                <mxCell id="48" value="" style="line;strokeWidth=1;fillColor=none;align=left;verticalAlign=middle;spacingTop=-1;spacingLeft=3;spacingRight=3;rotatable=0;labelPosition=right;points=[];portConstraint=eastwest;" vertex="1" parent="47">
                    <mxGeometry y="26" width="160" height="8" as="geometry"/>
                </mxCell>
                <mxCell id="49" value="&lt;p style=&quot;margin: 0px ; margin-top: 4px ; text-align: center&quot;&gt;&lt;span&gt;&amp;lt;&amp;lt;Interface&amp;gt;&amp;gt;&lt;/span&gt;&lt;br&gt;&lt;b&gt;&lt;span&gt;IFilmeRepository&lt;/span&gt;&lt;/b&gt;&lt;/p&gt;&lt;hr size=&quot;1&quot;&gt;&lt;p style=&quot;margin: 0px ; margin-left: 4px&quot;&gt;&lt;span&gt;+ addFilme(filme: Filme): void&lt;br&gt;+ getAllFilmes(): List&amp;lt;Filme&amp;gt;&lt;/span&gt;&lt;/p&gt;&lt;p style=&quot;margin: 0px ; margin-left: 4px&quot;&gt;&lt;span&gt;+ updateFilme(filme: Filme): boolean&lt;br&gt;&lt;/span&gt;&lt;/p&gt;&lt;p style=&quot;margin: 0px ; margin-left: 4px&quot;&gt;&lt;span&gt;+ removeFilme(codigo: int): boolean&lt;/span&gt;&lt;/p&gt;&lt;p style=&quot;margin: 0px ; margin-left: 4px&quot;&gt;&lt;span&gt;+ findByCodigo(codigo: int): Filme&lt;/span&gt;&lt;br&gt;&lt;/p&gt;" style="verticalAlign=top;align=left;overflow=fill;fontSize=12;fontFamily=Helvetica;html=1;fillColor=default;strokeColor=#000000;gradientColor=none;fontStyle=2;strokeWidth=2;" vertex="1" parent="1">
                    <mxGeometry x="1908" y="-66" width="220" height="120" as="geometry"/>
                </mxCell>
                <mxCell id="50" style="edgeStyle=none;html=1;exitX=0.147;exitY=1.01;exitDx=0;exitDy=0;entryX=0.152;entryY=0;entryDx=0;entryDy=0;entryPerimeter=0;endArrow=none;endFill=0;endSize=12;startArrow=diamondThin;startFill=0;startSize=24;exitPerimeter=0;" edge="1" parent="1" source="51" target="65">
                    <mxGeometry relative="1" as="geometry"/>
                </mxCell>
                <mxCell id="51" value="&lt;p style=&quot;margin: 0px ; margin-top: 4px ; text-align: center&quot;&gt;&lt;span&gt;&amp;lt;&amp;lt;Interface&amp;gt;&amp;gt;&lt;/span&gt;&lt;br&gt;&lt;b&gt;ISalaRepository&lt;/b&gt;&lt;/p&gt;&lt;hr size=&quot;1&quot;&gt;&lt;p style=&quot;margin: 0px ; margin-left: 4px&quot;&gt;&lt;span&gt;+ addSala(filme: Sala): void&lt;br&gt;+ getAllSalas(): List&amp;lt;Sala&amp;gt;&lt;/span&gt;&lt;/p&gt;&lt;p style=&quot;margin: 0px ; margin-left: 4px&quot;&gt;&lt;span&gt;+ updateSala(sala: Sala): boolean&lt;br&gt;&lt;/span&gt;&lt;/p&gt;&lt;p style=&quot;margin: 0px ; margin-left: 4px&quot;&gt;&lt;span&gt;+ removeSala(id: int): boolean&lt;/span&gt;&lt;/p&gt;&lt;p style=&quot;margin: 0px ; margin-left: 4px&quot;&gt;&lt;span&gt;+ findById(id: int): Sala&lt;/span&gt;&lt;br&gt;&lt;/p&gt;&lt;p style=&quot;margin: 0px ; margin-left: 4px&quot;&gt;&lt;span&gt;+ findByNumCadeira(numCadeira: int): boolean&lt;/span&gt;&lt;/p&gt;&lt;p style=&quot;margin: 0px ; margin-left: 4px&quot;&gt;&lt;span&gt;+ comprarIngresso(ingresso: Ingresso, numCadeira: int): boolean&lt;/span&gt;&lt;/p&gt;&lt;p style=&quot;margin: 0px ; margin-left: 4px&quot;&gt;&lt;span&gt;+ getAllCadeirasOcupadas(salaId: int): List&amp;lt;Integer&amp;gt;&lt;/span&gt;&lt;/p&gt;" style="verticalAlign=top;align=left;overflow=fill;fontSize=12;fontFamily=Helvetica;html=1;fontStyle=2;strokeWidth=2;" vertex="1" parent="1">
                    <mxGeometry x="2219" y="-66" width="361" height="167" as="geometry"/>
                </mxCell>
                <mxCell id="52" value="SalaFileRepository" style="swimlane;fontStyle=1;align=center;verticalAlign=top;childLayout=stackLayout;horizontal=1;startSize=26;horizontalStack=0;resizeParent=1;resizeParentMax=0;resizeLast=0;collapsible=1;marginBottom=0;fillColor=#1BA1E2;fontColor=#FFFFFF;" vertex="1" parent="1">
                    <mxGeometry x="2343" y="134" width="160" height="34" as="geometry">
                        <mxRectangle x="2259" y="183" width="140" height="26" as="alternateBounds"/>
                    </mxGeometry>
                </mxCell>
                <mxCell id="53" value="" style="line;strokeWidth=1;fillColor=none;align=left;verticalAlign=middle;spacingTop=-1;spacingLeft=3;spacingRight=3;rotatable=0;labelPosition=right;points=[];portConstraint=eastwest;" vertex="1" parent="52">
                    <mxGeometry y="26" width="160" height="8" as="geometry"/>
                </mxCell>
                <mxCell id="54" style="edgeStyle=none;html=1;exitX=0.25;exitY=1;exitDx=0;exitDy=0;startArrow=diamondThin;startFill=0;endArrow=none;endFill=0;startSize=24;endSize=12;" edge="1" parent="1" source="55">
                    <mxGeometry relative="1" as="geometry">
                        <mxPoint x="2664.4400000000005" y="104.19999999999982" as="sourcePoint"/>
                        <mxPoint x="2664" y="380.00000000000045" as="targetPoint"/>
                    </mxGeometry>
                </mxCell>
                <mxCell id="55" value="&lt;p style=&quot;margin: 0px ; margin-top: 4px ; text-align: center&quot;&gt;&lt;span&gt;&amp;lt;&amp;lt;Interface&amp;gt;&amp;gt;&lt;/span&gt;&lt;br&gt;&lt;b&gt;IClienteRepository&lt;/b&gt;&lt;/p&gt;&lt;hr size=&quot;1&quot;&gt;&lt;p style=&quot;margin: 0px ; margin-left: 4px&quot;&gt;&lt;span&gt;+ addCliente(cliente: Cliente): void&lt;br&gt;+ getAllClientes(): List&amp;lt;Cliente&amp;gt;&lt;/span&gt;&lt;/p&gt;&lt;p style=&quot;margin: 0px ; margin-left: 4px&quot;&gt;&lt;span&gt;+ updateCliente(cliente: Cliente): boolean&lt;br&gt;&lt;/span&gt;&lt;/p&gt;&lt;p style=&quot;margin: 0px ; margin-left: 4px&quot;&gt;&lt;span&gt;+ removeCliente(cpf: String): boolean&lt;/span&gt;&lt;/p&gt;&lt;p style=&quot;margin: 0px ; margin-left: 4px&quot;&gt;&lt;span&gt;+ findByCpf(cpf: String): Cliente&lt;/span&gt;&lt;br&gt;&lt;/p&gt;" style="verticalAlign=top;align=left;overflow=fill;fontSize=12;fontFamily=Helvetica;html=1;fontStyle=2;strokeWidth=2;" vertex="1" parent="1">
                    <mxGeometry x="2599" y="-66" width="240" height="120" as="geometry"/>
                </mxCell>
                <mxCell id="56" style="edgeStyle=none;html=1;exitX=0.5;exitY=0;exitDx=0;exitDy=0;startArrow=none;startFill=0;endArrow=block;endFill=0;startSize=23;endSize=12;dashed=1;" edge="1" parent="1" source="57">
                    <mxGeometry relative="1" as="geometry">
                        <mxPoint x="2781" y="51" as="targetPoint"/>
                    </mxGeometry>
                </mxCell>
                <mxCell id="57" value="ClienteFileRepository" style="swimlane;fontStyle=1;align=center;verticalAlign=top;childLayout=stackLayout;horizontal=1;startSize=26;horizontalStack=0;resizeParent=1;resizeParentMax=0;resizeLast=0;collapsible=1;marginBottom=0;fontColor=#FFFFFF;fillColor=#1BA1E2;" vertex="1" parent="1">
                    <mxGeometry x="2701" y="135" width="160" height="34" as="geometry"/>
                </mxCell>
                <mxCell id="58" value="" style="line;strokeWidth=1;fillColor=none;align=left;verticalAlign=middle;spacingTop=-1;spacingLeft=3;spacingRight=3;rotatable=0;labelPosition=right;points=[];portConstraint=eastwest;" vertex="1" parent="57">
                    <mxGeometry y="26" width="160" height="8" as="geometry"/>
                </mxCell>
                <mxCell id="59" value="&lt;p style=&quot;margin: 0px ; margin-top: 4px ; text-align: center&quot;&gt;&lt;span&gt;&amp;lt;&amp;lt;Interface&amp;gt;&amp;gt;&lt;/span&gt;&lt;br&gt;&lt;b&gt;IEstudanteRepository&lt;/b&gt;&lt;/p&gt;&lt;hr size=&quot;1&quot;&gt;&lt;p style=&quot;margin: 0px ; margin-left: 4px&quot;&gt;&lt;span&gt;+ findBySigla(sigla: String, cpf: String): Estudante&lt;/span&gt;&lt;/p&gt;&lt;p style=&quot;margin: 0px ; margin-left: 4px&quot;&gt;&lt;span&gt;+ findAllSiglas(): List&amp;lt;String&amp;gt;&lt;/span&gt;&lt;/p&gt;&lt;p style=&quot;margin: 0px ; margin-left: 4px&quot;&gt;&lt;span&gt;+ addEstudante(estudante: Estudante): boolean&lt;/span&gt;&lt;/p&gt;" style="verticalAlign=top;align=left;overflow=fill;fontSize=12;fontFamily=Helvetica;html=1;fontStyle=2;strokeWidth=2;" vertex="1" parent="1">
                    <mxGeometry x="2869" y="-69" width="280" height="100" as="geometry"/>
                </mxCell>
                <mxCell id="60" value="EstudanteFileRepository" style="swimlane;fontStyle=1;align=center;verticalAlign=top;childLayout=stackLayout;horizontal=1;startSize=26;horizontalStack=0;resizeParent=1;resizeParentMax=0;resizeLast=0;collapsible=1;marginBottom=0;fillColor=#1BA1E2;fontColor=#FFFFFF;" vertex="1" parent="1">
                    <mxGeometry x="2929" y="135" width="160" height="34" as="geometry"/>
                </mxCell>
                <mxCell id="61" value="" style="line;strokeWidth=1;fillColor=none;align=left;verticalAlign=middle;spacingTop=-1;spacingLeft=3;spacingRight=3;rotatable=0;labelPosition=right;points=[];portConstraint=eastwest;" vertex="1" parent="60">
                    <mxGeometry y="26" width="160" height="8" as="geometry"/>
                </mxCell>
                <mxCell id="62" value="" style="endArrow=block;dashed=1;endFill=0;endSize=12;html=1;entryX=0.5;entryY=1;entryDx=0;entryDy=0;" edge="1" parent="1" target="51">
                    <mxGeometry width="160" relative="1" as="geometry">
                        <mxPoint x="2400" y="134" as="sourcePoint"/>
                        <mxPoint x="2348" y="54.00000000000023" as="targetPoint"/>
                    </mxGeometry>
                </mxCell>
                <mxCell id="63" value="" style="endArrow=block;dashed=1;endFill=0;endSize=12;html=1;" edge="1" parent="1">
                    <mxGeometry width="160" relative="1" as="geometry">
                        <mxPoint x="2989" y="141" as="sourcePoint"/>
                        <mxPoint x="2989" y="31" as="targetPoint"/>
                    </mxGeometry>
                </mxCell>
                <mxCell id="64" value="&lt;p style=&quot;margin: 0px ; margin-top: 4px ; text-align: center&quot;&gt;&lt;b&gt;FilmeServices&lt;/b&gt;&lt;/p&gt;&lt;hr size=&quot;1&quot;&gt;&lt;p style=&quot;margin: 0px ; margin-left: 4px&quot;&gt;- filmesRepository: IFilmeRepository&lt;/p&gt;&lt;hr size=&quot;1&quot;&gt;&lt;p style=&quot;margin: 0px ; margin-left: 4px&quot;&gt;+ FilmeServices(filmesRepository: IFilmeRepository): void&lt;/p&gt;&lt;p style=&quot;margin: 0px 0px 0px 4px&quot;&gt;+ addFilme(): void&lt;br&gt;+ getAllFilmes(): void&lt;/p&gt;&lt;p style=&quot;margin: 0px 0px 0px 4px&quot;&gt;+ updateFilme(): void&lt;br&gt;&lt;/p&gt;&lt;p style=&quot;margin: 0px 0px 0px 4px&quot;&gt;+ removeFilme(): void&lt;/p&gt;&lt;p style=&quot;margin: 0px 0px 0px 4px&quot;&gt;- statusUpdateFilme(updatedSuccessFilme: boolean,&lt;/p&gt;&lt;p style=&quot;margin: 0px 0px 0px 4px&quot;&gt;String field): String&lt;/p&gt;&lt;p style=&quot;margin: 0px 0px 0px 4px&quot;&gt;- mapUpdatedFilmeMessage(op: int): String&lt;/p&gt;" style="verticalAlign=top;align=left;overflow=fill;fontSize=12;fontFamily=Helvetica;html=1;strokeWidth=2;" vertex="1" parent="1">
                    <mxGeometry x="1860" y="383" width="320" height="177" as="geometry"/>
                </mxCell>
                <mxCell id="65" value="&lt;p style=&quot;margin: 0px ; margin-top: 4px ; text-align: center&quot;&gt;&lt;b&gt;SalaServices&lt;/b&gt;&lt;/p&gt;&lt;hr size=&quot;1&quot;&gt;&lt;p style=&quot;margin: 0px ; margin-left: 4px&quot;&gt;&lt;u&gt;- VALOR_INGRESSO_MEIA: float = 10&lt;/u&gt;&lt;/p&gt;&lt;p style=&quot;margin: 0px ; margin-left: 4px&quot;&gt;&lt;u&gt;- VALOR_INGRESSO_INTEIRA: float = 20&lt;/u&gt;&lt;br&gt;&lt;/p&gt;&lt;p style=&quot;margin: 0px ; margin-left: 4px&quot;&gt;- salasRepository: ISalaRepository&lt;/p&gt;&lt;p style=&quot;margin: 0px ; margin-left: 4px&quot;&gt;- clientesRepository: IClienteRepository&lt;br&gt;&lt;/p&gt;&lt;p style=&quot;margin: 0px ; margin-left: 4px&quot;&gt;- filmesRepository: IFilmeRepository&lt;br&gt;&lt;/p&gt;&lt;p style=&quot;margin: 0px ; margin-left: 4px&quot;&gt;- estudantesRepository: IEstudanteRepository&lt;br&gt;&lt;/p&gt;&lt;hr size=&quot;1&quot;&gt;&lt;p style=&quot;margin: 0px ; margin-left: 4px&quot;&gt;+ SalaServices(&lt;span&gt;salasRepository: ISalaRepository&lt;/span&gt;&lt;/p&gt;&lt;p style=&quot;margin: 0px 0px 0px 4px&quot;&gt;&amp;nbsp;clientesRepository: IClienteRepository&lt;br&gt;&lt;/p&gt;&lt;p style=&quot;margin: 0px 0px 0px 4px&quot;&gt;&amp;nbsp;filmesRepository: IFilmeRepository&lt;br&gt;&lt;/p&gt;&lt;p style=&quot;margin: 0px 0px 0px 4px&quot;&gt;&amp;nbsp;estudantesRepository: IEstudanteRepository&lt;span&gt;): void&lt;/span&gt;&lt;/p&gt;&lt;p style=&quot;margin: 0px 0px 0px 4px&quot;&gt;+ adicionaSala(): void&lt;/p&gt;&lt;p style=&quot;margin: 0px 0px 0px 4px&quot;&gt;+ comprarIngresso(): void&lt;/p&gt;&lt;p style=&quot;margin: 0px 0px 0px 4px&quot;&gt;+ printSala(assentosOcup: List&amp;lt;Integer&amp;gt;): void&lt;/p&gt;&lt;p style=&quot;margin: 0px 0px 0px 4px&quot;&gt;- criaMatriz(): String[][]&lt;/p&gt;&lt;p style=&quot;margin: 0px 0px 0px 4px&quot;&gt;+ adicionaFilmeNaSala(): void&lt;br&gt;+ getAllSalas(): void&lt;/p&gt;&lt;p style=&quot;margin: 0px 0px 0px 4px&quot;&gt;+ removeSala(): void&lt;/p&gt;" style="verticalAlign=top;align=left;overflow=fill;fontSize=12;fontFamily=Helvetica;html=1;strokeWidth=2;" vertex="1" parent="1">
                    <mxGeometry x="2230" y="381" width="290" height="289" as="geometry"/>
                </mxCell>
                <mxCell id="66" value="&lt;p style=&quot;margin: 0px ; margin-top: 4px ; text-align: center&quot;&gt;&lt;b&gt;ClienteServices&lt;/b&gt;&lt;/p&gt;&lt;hr size=&quot;1&quot;&gt;&lt;p style=&quot;margin: 0px ; margin-left: 4px&quot;&gt;- clientesRepository: IClienteRepository&lt;/p&gt;&lt;p style=&quot;margin: 0px ; margin-left: 4px&quot;&gt;- estudantesRepository: IEstudanteRepository&lt;/p&gt;&lt;hr size=&quot;1&quot;&gt;&lt;p style=&quot;margin: 0px ; margin-left: 4px&quot;&gt;+ ClienteServices(clientesRepository: IClienteRepository,&lt;/p&gt;&lt;p style=&quot;margin: 0px ; margin-left: 4px&quot;&gt;estudantesRepository: IEstudantesRepository&lt;span&gt;): void&lt;/span&gt;&lt;/p&gt;&lt;p style=&quot;margin: 0px 0px 0px 4px&quot;&gt;+ addCliente(cliente: Cliente): void&lt;br&gt;+ getAllClientes(): void&lt;/p&gt;&lt;p style=&quot;margin: 0px 0px 0px 4px&quot;&gt;+ updateCliente(): void&lt;br&gt;&lt;/p&gt;&lt;p style=&quot;margin: 0px 0px 0px 4px&quot;&gt;+ removeCliente(): void&lt;/p&gt;&lt;p style=&quot;margin: 0px 0px 0px 4px&quot;&gt;- statusUpdateCliente(updatedSuccessCliente: boolean,&lt;/p&gt;&lt;p style=&quot;margin: 0px 0px 0px 4px&quot;&gt;String field): String&lt;/p&gt;&lt;p style=&quot;margin: 0px 0px 0px 4px&quot;&gt;- mapUpdatedClienteMessage(op: int): String&lt;/p&gt;&lt;p style=&quot;margin: 0px 0px 0px 4px&quot;&gt;&lt;br&gt;&lt;/p&gt;" style="verticalAlign=top;align=left;overflow=fill;fontSize=12;fontFamily=Helvetica;html=1;strokeWidth=2;" vertex="1" parent="1">
                    <mxGeometry x="2540" y="383" width="317" height="208" as="geometry"/>
                </mxCell>
                <mxCell id="67" value="" style="endArrow=diamondThin;endFill=0;endSize=24;html=1;fontSize=35;entryX=0.144;entryY=0.992;entryDx=0;entryDy=0;entryPerimeter=0;" edge="1" parent="1" target="49">
                    <mxGeometry width="160" relative="1" as="geometry">
                        <mxPoint x="1941" y="380.00000000000045" as="sourcePoint"/>
                        <mxPoint x="2089" y="353" as="targetPoint"/>
                        <Array as="points"/>
                    </mxGeometry>
                </mxCell>
                <mxCell id="68" value="Menu" style="swimlane;fontStyle=1;align=center;verticalAlign=top;childLayout=stackLayout;horizontal=1;startSize=26;horizontalStack=0;resizeParent=1;resizeParentMax=0;resizeLast=0;collapsible=1;marginBottom=0;fontSize=14;fillColor=#1ba1e2;fontColor=#ffffff;strokeColor=#000000;strokeWidth=2;rounded=0;shadow=0;sketch=0;glass=0;" vertex="1" parent="1">
                    <mxGeometry x="2220" y="1260" width="258" height="82" as="geometry"/>
                </mxCell>
                <mxCell id="69" value="" style="line;strokeWidth=2;align=left;verticalAlign=middle;spacingTop=-1;spacingLeft=3;spacingRight=3;rotatable=0;labelPosition=right;points=[];portConstraint=eastwest;fontSize=14;shadow=0;" vertex="1" parent="68">
                    <mxGeometry y="26" width="258" height="8" as="geometry"/>
                </mxCell>
                <mxCell id="70" value="+ menuAdmin(): void" style="text;align=left;verticalAlign=top;spacingLeft=4;spacingRight=4;overflow=hidden;rotatable=0;points=[[0,0.5],[1,0.5]];portConstraint=eastwest;fontSize=14;fontStyle=4" vertex="1" parent="68">
                    <mxGeometry y="34" width="258" height="22" as="geometry"/>
                </mxCell>
                <mxCell id="71" value="+ menuCliente(): void" style="text;align=left;verticalAlign=top;spacingLeft=4;spacingRight=4;overflow=hidden;rotatable=0;points=[[0,0.5],[1,0.5]];portConstraint=eastwest;fontSize=14;fontStyle=4" vertex="1" parent="68">
                    <mxGeometry y="56" width="258" height="26" as="geometry"/>
                </mxCell>
                <mxCell id="72" value="Utils" style="shape=folder;fontStyle=1;spacingTop=10;tabWidth=40;tabHeight=14;tabPosition=left;html=1;labelBackgroundColor=none;fontSize=35;fontColor=#000000;fillColor=#FFFFFF;gradientColor=none;verticalAlign=top;strokeWidth=1;" vertex="1" parent="1">
                    <mxGeometry x="2580" y="1180" width="410" height="210" as="geometry"/>
                </mxCell>
                <mxCell id="73" value="Console" style="swimlane;fontStyle=1;align=center;verticalAlign=top;childLayout=stackLayout;horizontal=1;startSize=26;horizontalStack=0;resizeParent=1;resizeParentMax=0;resizeLast=0;collapsible=1;marginBottom=0;fontSize=14;fillColor=#1ba1e2;fontColor=#ffffff;strokeColor=#000000;strokeWidth=2;rounded=0;shadow=0;sketch=0;glass=0;" vertex="1" parent="1">
                    <mxGeometry x="2650" y="1260" width="258" height="60" as="geometry"/>
                </mxCell>
                <mxCell id="74" value="" style="line;strokeWidth=2;align=left;verticalAlign=middle;spacingTop=-1;spacingLeft=3;spacingRight=3;rotatable=0;labelPosition=right;points=[];portConstraint=eastwest;fontSize=14;shadow=0;" vertex="1" parent="73">
                    <mxGeometry y="26" width="258" height="8" as="geometry"/>
                </mxCell>
                <mxCell id="75" value="+ clear(): void" style="text;align=left;verticalAlign=top;spacingLeft=4;spacingRight=4;overflow=hidden;rotatable=0;points=[[0,0.5],[1,0.5]];portConstraint=eastwest;fontSize=14;fontStyle=4" vertex="1" parent="73">
                    <mxGeometry y="34" width="258" height="26" as="geometry"/>
                </mxCell>
                <mxCell id="76" style="edgeStyle=none;html=1;entryX=0.152;entryY=0;entryDx=0;entryDy=0;entryPerimeter=0;endArrow=none;endFill=0;endSize=12;startArrow=diamondThin;startFill=0;startSize=24;exitX=0.132;exitY=1.012;exitDx=0;exitDy=0;exitPerimeter=0;" edge="1" parent="1" source="55">
                    <mxGeometry relative="1" as="geometry">
                        <mxPoint x="2530" y="280" as="sourcePoint"/>
                        <mxPoint x="2301.01" y="379.3300000000004" as="targetPoint"/>
                        <Array as="points">
                            <mxPoint x="2632" y="300"/>
                            <mxPoint x="2300" y="300"/>
                        </Array>
                    </mxGeometry>
                </mxCell>
                <mxCell id="77" style="edgeStyle=none;html=1;entryX=0.152;entryY=0;entryDx=0;entryDy=0;entryPerimeter=0;endArrow=none;endFill=0;endSize=12;startArrow=diamondThin;startFill=0;startSize=24;exitX=0.127;exitY=1.018;exitDx=0;exitDy=0;exitPerimeter=0;" edge="1" parent="1" source="59">
                    <mxGeometry relative="1" as="geometry">
                        <mxPoint x="2670.6799999999994" y="106.00000000000006" as="sourcePoint"/>
                        <mxPoint x="2340.01" y="380.8899999999999" as="targetPoint"/>
                        <Array as="points">
                            <mxPoint x="2910" y="350"/>
                            <mxPoint x="2340" y="350"/>
                        </Array>
                    </mxGeometry>
                </mxCell>
                <mxCell id="78" style="edgeStyle=none;html=1;endArrow=none;endFill=0;endSize=12;startArrow=diamondThin;startFill=0;startSize=24;exitX=0.842;exitY=1.006;exitDx=0;exitDy=0;exitPerimeter=0;" edge="1" parent="1" source="49">
                    <mxGeometry relative="1" as="geometry">
                        <mxPoint x="2885.5599999999995" y="59.99999999999996" as="sourcePoint"/>
                        <mxPoint x="2320" y="380.00000000000045" as="targetPoint"/>
                        <Array as="points">
                            <mxPoint x="2094" y="160"/>
                            <mxPoint x="2190" y="160"/>
                            <mxPoint x="2190" y="328"/>
                            <mxPoint x="2320" y="328.2"/>
                        </Array>
                    </mxGeometry>
                </mxCell>
                <mxCell id="79" style="edgeStyle=none;html=1;exitX=0.891;exitY=1.024;exitDx=0;exitDy=0;startArrow=diamondThin;startFill=0;endArrow=none;endFill=0;startSize=24;endSize=12;exitPerimeter=0;" edge="1" parent="1" source="59">
                    <mxGeometry relative="1" as="geometry">
                        <mxPoint x="2680.4400000000005" y="109.99999999999982" as="sourcePoint"/>
                        <mxPoint x="2680" y="385.8000000000002" as="targetPoint"/>
                        <Array as="points">
                            <mxPoint x="3119" y="330"/>
                            <mxPoint x="2680" y="330"/>
                        </Array>
                    </mxGeometry>
                </mxCell>
                <mxCell id="80" value="AdmValidation" style="swimlane;fontStyle=1;align=center;verticalAlign=top;childLayout=stackLayout;horizontal=1;startSize=26;horizontalStack=0;resizeParent=1;resizeParentMax=0;resizeLast=0;collapsible=1;marginBottom=0;fontSize=14;strokeWidth=2;fillColor=#1ba1e2;fontColor=#ffffff;strokeColor=#000000;" vertex="1" parent="1">
                    <mxGeometry x="3169" y="71" width="358" height="86" as="geometry"/>
                </mxCell>
                <mxCell id="81" value="- FILENAME_ADMS: String = &quot;src/database/adms.txt&quot;" style="text;align=left;verticalAlign=top;spacingLeft=4;spacingRight=4;overflow=hidden;rotatable=0;points=[[0,0.5],[1,0.5]];portConstraint=eastwest;fontSize=14;" vertex="1" parent="80">
                    <mxGeometry y="26" width="358" height="26" as="geometry"/>
                </mxCell>
                <mxCell id="82" value="" style="line;strokeWidth=2;align=left;verticalAlign=middle;spacingTop=-1;spacingLeft=3;spacingRight=3;rotatable=0;labelPosition=right;points=[];portConstraint=eastwest;fontSize=14;" vertex="1" parent="80">
                    <mxGeometry y="52" width="358" height="8" as="geometry"/>
                </mxCell>
                <mxCell id="83" value="+ validation(cpf: String): boolean" style="text;align=left;verticalAlign=top;spacingLeft=4;spacingRight=4;overflow=hidden;rotatable=0;points=[[0,0.5],[1,0.5]];portConstraint=eastwest;fontSize=14;" vertex="1" parent="80">
                    <mxGeometry y="60" width="358" height="26" as="geometry"/>
                </mxCell>
                <mxCell id="84" value="App" style="swimlane;fontStyle=1;align=center;verticalAlign=top;childLayout=stackLayout;horizontal=1;startSize=26;horizontalStack=0;resizeParent=1;resizeParentMax=0;resizeLast=0;collapsible=1;marginBottom=0;fontSize=14;strokeWidth=2;fillColor=#1ba1e2;fontColor=#ffffff;strokeColor=#000000;" vertex="1" parent="1">
                    <mxGeometry x="1730" y="1190" width="358" height="268" as="geometry"/>
                </mxCell>
                <mxCell id="85" value="- filmeRepository: IFilmeRepository" style="text;align=left;verticalAlign=top;spacingLeft=4;spacingRight=4;overflow=hidden;rotatable=0;points=[[0,0.5],[1,0.5]];portConstraint=eastwest;fontSize=14;" vertex="1" parent="84">
                    <mxGeometry y="26" width="358" height="26" as="geometry"/>
                </mxCell>
                <mxCell id="86" value="- filmeServices: FilmeServices" style="text;align=left;verticalAlign=top;spacingLeft=4;spacingRight=4;overflow=hidden;rotatable=0;points=[[0,0.5],[1,0.5]];portConstraint=eastwest;fontSize=14;" vertex="1" parent="84">
                    <mxGeometry y="52" width="358" height="26" as="geometry"/>
                </mxCell>
                <mxCell id="87" value="- salaRepository: ISalaRepository" style="text;align=left;verticalAlign=top;spacingLeft=4;spacingRight=4;overflow=hidden;rotatable=0;points=[[0,0.5],[1,0.5]];portConstraint=eastwest;fontSize=14;" vertex="1" parent="84">
                    <mxGeometry y="78" width="358" height="26" as="geometry"/>
                </mxCell>
                <mxCell id="88" value="- salaServices: SalaServices" style="text;align=left;verticalAlign=top;spacingLeft=4;spacingRight=4;overflow=hidden;rotatable=0;points=[[0,0.5],[1,0.5]];portConstraint=eastwest;fontSize=14;" vertex="1" parent="84">
                    <mxGeometry y="104" width="358" height="26" as="geometry"/>
                </mxCell>
                <mxCell id="89" value="- clienteServices: ClienteServices" style="text;align=left;verticalAlign=top;spacingLeft=4;spacingRight=4;overflow=hidden;rotatable=0;points=[[0,0.5],[1,0.5]];portConstraint=eastwest;fontSize=14;" vertex="1" parent="84">
                    <mxGeometry y="130" width="358" height="26" as="geometry"/>
                </mxCell>
                <mxCell id="90" value="- clienteRepository: IClienteRepository" style="text;align=left;verticalAlign=top;spacingLeft=4;spacingRight=4;overflow=hidden;rotatable=0;points=[[0,0.5],[1,0.5]];portConstraint=eastwest;fontSize=14;" vertex="1" parent="84">
                    <mxGeometry y="156" width="358" height="26" as="geometry"/>
                </mxCell>
                <mxCell id="91" value="- estudanteRepository: IEstudanteRepository" style="text;align=left;verticalAlign=top;spacingLeft=4;spacingRight=4;overflow=hidden;rotatable=0;points=[[0,0.5],[1,0.5]];portConstraint=eastwest;fontSize=14;" vertex="1" parent="84">
                    <mxGeometry y="182" width="358" height="26" as="geometry"/>
                </mxCell>
                <mxCell id="92" value="" style="line;strokeWidth=2;align=left;verticalAlign=middle;spacingTop=-1;spacingLeft=3;spacingRight=3;rotatable=0;labelPosition=right;points=[];portConstraint=eastwest;fontSize=14;" vertex="1" parent="84">
                    <mxGeometry y="208" width="358" height="8" as="geometry"/>
                </mxCell>
                <mxCell id="93" value="+ selecionaOperacaoAdmin(): String" style="text;align=left;verticalAlign=top;spacingLeft=4;spacingRight=4;overflow=hidden;rotatable=0;points=[[0,0.5],[1,0.5]];portConstraint=eastwest;fontSize=14;" vertex="1" parent="84">
                    <mxGeometry y="216" width="358" height="26" as="geometry"/>
                </mxCell>
                <mxCell id="94" value="+ selecionaOperacaoCliente(): String" style="text;align=left;verticalAlign=top;spacingLeft=4;spacingRight=4;overflow=hidden;rotatable=0;points=[[0,0.5],[1,0.5]];portConstraint=eastwest;fontSize=14;" vertex="1" parent="84">
                    <mxGeometry y="242" width="358" height="26" as="geometry"/>
                </mxCell>
                <mxCell id="95" value="ClienteServicesException" style="swimlane;fontStyle=1;align=center;verticalAlign=top;childLayout=stackLayout;horizontal=1;startSize=26;horizontalStack=0;resizeParent=1;resizeParentMax=0;resizeLast=0;collapsible=1;marginBottom=0;fontSize=14;strokeWidth=2;fillColor=#1ba1e2;fontColor=#ffffff;strokeColor=#000000;" vertex="1" parent="1">
                    <mxGeometry x="2555" y="1030" width="358" height="62" as="geometry"/>
                </mxCell>
                <mxCell id="96" value="" style="line;strokeWidth=2;align=left;verticalAlign=middle;spacingTop=-1;spacingLeft=3;spacingRight=3;rotatable=0;labelPosition=right;points=[];portConstraint=eastwest;fontSize=14;" vertex="1" parent="95">
                    <mxGeometry y="26" width="358" height="8" as="geometry"/>
                </mxCell>
                <mxCell id="97" value="+ ClienteServicesException(message: String)" style="text;align=left;verticalAlign=top;spacingLeft=4;spacingRight=4;overflow=hidden;rotatable=0;points=[[0,0.5],[1,0.5]];portConstraint=eastwest;fontSize=14;" vertex="1" parent="95">
                    <mxGeometry y="34" width="358" height="28" as="geometry"/>
                </mxCell>
                <mxCell id="98" value="FilmeServicesException" style="swimlane;fontStyle=1;align=center;verticalAlign=top;childLayout=stackLayout;horizontal=1;startSize=26;horizontalStack=0;resizeParent=1;resizeParentMax=0;resizeLast=0;collapsible=1;marginBottom=0;fontSize=14;strokeWidth=2;fillColor=#1ba1e2;fontColor=#ffffff;strokeColor=#000000;" vertex="1" parent="1">
                    <mxGeometry x="1792" y="1030" width="358" height="62" as="geometry"/>
                </mxCell>
                <mxCell id="99" value="" style="line;strokeWidth=2;align=left;verticalAlign=middle;spacingTop=-1;spacingLeft=3;spacingRight=3;rotatable=0;labelPosition=right;points=[];portConstraint=eastwest;fontSize=14;" vertex="1" parent="98">
                    <mxGeometry y="26" width="358" height="8" as="geometry"/>
                </mxCell>
                <mxCell id="100" value="+ FilmeServicesException(message: String)" style="text;align=left;verticalAlign=top;spacingLeft=4;spacingRight=4;overflow=hidden;rotatable=0;points=[[0,0.5],[1,0.5]];portConstraint=eastwest;fontSize=14;" vertex="1" parent="98">
                    <mxGeometry y="34" width="358" height="28" as="geometry"/>
                </mxCell>
                <mxCell id="101" value="SalaServicesException" style="swimlane;fontStyle=1;align=center;verticalAlign=top;childLayout=stackLayout;horizontal=1;startSize=26;horizontalStack=0;resizeParent=1;resizeParentMax=0;resizeLast=0;collapsible=1;marginBottom=0;fontSize=14;strokeWidth=2;fillColor=#1ba1e2;fontColor=#ffffff;strokeColor=#000000;" vertex="1" parent="1">
                    <mxGeometry x="2172" y="1030" width="358" height="62" as="geometry"/>
                </mxCell>
                <mxCell id="102" value="" style="line;strokeWidth=2;align=left;verticalAlign=middle;spacingTop=-1;spacingLeft=3;spacingRight=3;rotatable=0;labelPosition=right;points=[];portConstraint=eastwest;fontSize=14;" vertex="1" parent="101">
                    <mxGeometry y="26" width="358" height="8" as="geometry"/>
                </mxCell>
                <mxCell id="103" value="+ SalaServicesException(message: String)" style="text;align=left;verticalAlign=top;spacingLeft=4;spacingRight=4;overflow=hidden;rotatable=0;points=[[0,0.5],[1,0.5]];portConstraint=eastwest;fontSize=14;" vertex="1" parent="101">
                    <mxGeometry y="34" width="358" height="28" as="geometry"/>
                </mxCell>
                <mxCell id="104" value="&lt;font style=&quot;font-size: 18px&quot;&gt;&amp;lt;&amp;lt;throws&amp;gt;&amp;gt;&lt;/font&gt;" style="endArrow=none;endSize=12;dashed=1;html=1;exitX=0.645;exitY=-0.043;exitDx=0;exitDy=0;exitPerimeter=0;startArrow=open;startFill=0;endFill=0;sourcePerimeterSpacing=5;startSize=20;strokeWidth=2;" edge="1" parent="1" source="98">
                    <mxGeometry width="160" relative="1" as="geometry">
                        <mxPoint x="2019.342" y="799.0699999999997" as="sourcePoint"/>
                        <mxPoint x="2017.848920863309" y="560.0000000000005" as="targetPoint"/>
                        <Array as="points">
                            <mxPoint x="2019" y="680"/>
                        </Array>
                    </mxGeometry>
                </mxCell>
                <mxCell id="105" value="&lt;font style=&quot;font-size: 18px&quot;&gt;&amp;lt;&amp;lt;throws&amp;gt;&amp;gt;&lt;/font&gt;" style="endArrow=none;endSize=14;dashed=1;html=1;startArrow=open;startFill=0;endFill=0;sourcePerimeterSpacing=5;startSize=20;strokeWidth=2;entryX=0.422;entryY=1.018;entryDx=0;entryDy=0;entryPerimeter=0;" edge="1" parent="1" source="101" target="65">
                    <mxGeometry width="160" relative="1" as="geometry">
                        <mxPoint x="2371.492" y="909.0699999999997" as="sourcePoint"/>
                        <mxPoint x="2369.9989208633096" y="670" as="targetPoint"/>
                        <Array as="points"/>
                    </mxGeometry>
                </mxCell>
                <mxCell id="106" value="&lt;font style=&quot;font-size: 18px&quot;&gt;&amp;lt;&amp;lt;throws&amp;gt;&amp;gt;&lt;/font&gt;" style="endArrow=none;endSize=14;dashed=1;html=1;startArrow=open;startFill=0;endFill=0;sourcePerimeterSpacing=5;startSize=20;strokeWidth=2;entryX=0.422;entryY=1.018;entryDx=0;entryDy=0;entryPerimeter=0;exitX=0.4;exitY=-0.054;exitDx=0;exitDy=0;exitPerimeter=0;" edge="1" parent="1" source="95">
                    <mxGeometry width="160" relative="1" as="geometry">
                        <mxPoint x="2690.001011309517" y="709.8" as="sourcePoint"/>
                        <mxPoint x="2692.6000000000004" y="590.002" as="targetPoint"/>
                        <Array as="points"/>
                    </mxGeometry>
                </mxCell>
            </root>
        </mxGraphModel>
    </diagram>
</mxfile>